<svg xmlns="http://www.w3.org/2000/svg" viewBox="0 0 32 32" width="32" height="32">
  <!-- Background circle with gradient -->
  <defs>
    <linearGradient id="bgGradient" x1="0%" y1="0%" x2="100%" y2="100%">
      <stop offset="0%" style="stop-color:#ff6b6b"/>
      <stop offset="50%" style="stop-color:#ff8e53"/>
      <stop offset="100%" style="stop-color:#ffa726"/>
    </linearGradient>
  </defs>
  
  <!-- Background -->
  <circle cx="16" cy="16" r="15" fill="url(#bgGradient)" stroke="#fff" stroke-width="2"/>
  
  <!-- Chef hat -->
  <path d="M16 8c-3 0-5.5 2-6 4.5-.5-.5-1.5-1-2.5-.5s-1 2 0 3c1 1 2 1 3 1 0 2 0 4 2 5h7c2-1 2-3 2-5 1 0 2 0 3-1s1-2.5 0-3-2 0-2.5.5C21.5 10 19 8 16 8z" fill="#fff"/>
  
  <!-- Chef hat band -->
  <rect x="10" y="18" width="12" height="2" rx="1" fill="#f0f0f0"/>
  
  <!-- Cooking utensils -->
  <!-- Fork -->
  <g transform="translate(9,20)">
    <rect x="0" y="0" width="1" height="8" fill="#fff"/>
    <rect x="-1" y="0" width="0.5" height="3" fill="#fff"/>
    <rect x="1.5" y="0" width="0.5" height="3" fill="#fff"/>
  </g>
  
  <!-- Spoon -->
  <g transform="translate(23,20)">
    <rect x="0" y="1" width="1" height="7" fill="#fff"/>
    <circle cx="0.5" cy="1" r="1.5" fill="#fff"/>
  </g>
</svg>